<svg width="125" height="23" viewBox="0 0 125 23" fill="none" xmlns="http://www.w3.org/2000/svg">
<path d="M35.6529 12.041C35.6529 11.2881 35.046 10.6778 34.2974 10.6778H27.0678C26.3191 10.6778 25.7122 11.2881 25.7122 12.041C25.7122 12.7939 26.3191 13.4042 27.0678 13.4042L34.2974 13.4042C35.046 13.4042 35.6529 12.7939 35.6529 12.041Z" fill="#00B75D"/>
<path d="M29.9264 2.85579C30.6687 2.42478 31.618 2.68056 32.0465 3.42709L38.4917 14.6536C38.9203 15.4001 38.6659 16.3547 37.9236 16.7857C37.1813 17.2167 36.2321 16.9609 35.8035 16.2144L29.3583 4.98792C28.9297 4.24139 29.1841 3.2868 29.9264 2.85579Z" fill="#009166"/>
<path d="M31.44 2.83082C30.6977 2.39981 29.7485 2.65559 29.3199 3.40212L22.8747 14.6286C22.4462 15.3751 22.7005 16.3297 23.4428 16.7607C24.1852 17.1917 25.1344 16.936 25.563 16.1894L32.0081 4.96294C32.4367 4.21641 32.1824 3.26183 31.44 2.83082Z" fill="#00DE4A"/>
<path d="M35.7499 2.8207C35.7499 3.34867 36.1651 3.77667 36.6772 3.77667H40.3176C40.8297 3.77667 41.2449 3.34867 41.2449 2.8207C41.2449 2.29273 40.8297 1.86473 40.3176 1.86473H36.6772C36.1651 1.86473 35.7499 2.29273 35.7499 2.8207Z" fill="#00DE4A"/>
<path d="M38.486 5.66502C38.9981 5.66502 39.4132 5.23702 39.4132 4.70905V0.955973C39.4132 0.428004 38.9981 1.87086e-08 38.486 4.17869e-08C37.9739 6.48652e-08 37.5587 0.428004 37.5587 0.955973V4.70905C37.5587 5.23702 37.9739 5.66502 38.486 5.66502Z" fill="#00DE4A"/>
<path d="M5.93452 17.8108C4.77692 17.8108 3.7512 17.5465 2.85736 17.0177C1.96352 16.4739 1.26017 15.7261 0.747309 14.7744C0.249103 13.8227 0 12.735 0 11.5113C0 10.2726 0.263756 9.17734 0.791269 8.22562C1.31878 7.27389 2.04411 6.53366 2.96726 6.00493C3.8904 5.46108 4.9381 5.18916 6.11035 5.18916C7.29725 5.18916 8.34495 5.46108 9.25345 6.00493C10.1766 6.53366 10.8946 7.27389 11.4075 8.22562C11.935 9.17734 12.2061 10.2726 12.2207 11.5113L11.2316 12.0552C11.2316 13.1731 11.0045 14.1701 10.5502 15.0463C10.096 15.9074 9.46592 16.5872 8.66 17.0857C7.86873 17.5691 6.96023 17.8108 5.93452 17.8108ZM6.15431 22.5921C4.99672 22.5921 3.97832 22.3655 3.09914 21.9123C2.21995 21.4742 1.49462 20.87 0.923147 20.0995C0.761962 19.9182 0.688697 19.7218 0.70335 19.5103C0.732656 19.2989 0.842555 19.1251 1.03305 18.9892C1.22354 18.8532 1.43601 18.8079 1.67046 18.8532C1.90491 18.8985 2.08807 19.0118 2.21995 19.1931C2.64489 19.7369 3.18705 20.175 3.84644 20.5074C4.52049 20.8397 5.2971 21.0059 6.17629 21.0059C6.99687 21.0059 7.73685 20.802 8.39624 20.3941C9.05563 19.9862 9.57582 19.4122 9.9568 18.6719C10.3524 17.9317 10.5502 17.0631 10.5502 16.066V12.6217L11.1877 11.3074L12.2207 11.5113V16.134C12.2207 17.3576 11.9569 18.4529 11.4294 19.4197C10.9019 20.4016 10.1839 21.1721 9.27543 21.731C8.36693 22.3051 7.32656 22.5921 6.15431 22.5921ZM6.11035 16.2246C6.97489 16.2246 7.73685 16.0282 8.39624 15.6355C9.07028 15.2276 9.5978 14.6686 9.97878 13.9586C10.3598 13.2486 10.5502 12.4328 10.5502 11.5113C10.5502 10.5898 10.3598 9.77406 9.97878 9.06404C9.5978 8.33892 9.07028 7.77997 8.39624 7.38719C7.73685 6.97931 6.97489 6.77537 6.11035 6.77537C5.24582 6.77537 4.47653 6.97931 3.80249 7.38719C3.12844 7.77997 2.60093 8.33892 2.21995 9.06404C1.83897 9.77406 1.64848 10.5898 1.64848 11.5113C1.64848 12.4328 1.83897 13.2486 2.21995 13.9586C2.60093 14.6686 3.12844 15.2276 3.80249 15.6355C4.47653 16.0282 5.24582 16.2246 6.11035 16.2246Z" fill="white"/>
<path d="M16.2157 10.0611C16.2596 9.12447 16.4941 8.28604 16.919 7.54581C17.3586 6.80558 17.9228 6.22397 18.6115 5.80098C19.3148 5.378 20.0914 5.1665 20.9413 5.1665C21.6154 5.1665 22.1355 5.2647 22.5019 5.46108C22.8682 5.65747 23.0074 5.9445 22.9195 6.32217C22.8609 6.54877 22.7583 6.69984 22.6118 6.77537C22.4799 6.8509 22.3114 6.88112 22.1062 6.86601C21.9157 6.8509 21.696 6.8358 21.4468 6.82069C20.6263 6.74516 19.8936 6.8358 19.2489 7.09261C18.6188 7.33432 18.1133 7.71199 17.7323 8.22562C17.366 8.73925 17.1828 9.35107 17.1828 10.0611H16.2157ZM16.3476 17.6975C16.0838 17.6975 15.8787 17.622 15.7321 17.4709C15.5856 17.3199 15.5123 17.1084 15.5123 16.8365V6.16355C15.5123 5.89163 15.5856 5.68013 15.7321 5.52906C15.8787 5.378 16.0838 5.30246 16.3476 5.30246C16.6113 5.30246 16.8165 5.378 16.963 5.52906C17.1095 5.68013 17.1828 5.89163 17.1828 6.16355V16.8365C17.1828 17.1084 17.1095 17.3199 16.963 17.4709C16.8165 17.622 16.6113 17.6975 16.3476 17.6975Z" fill="white"/>
<path d="M47.6125 17.8108C46.4549 17.8108 45.4145 17.5389 44.4913 16.9951C43.5682 16.4361 42.8355 15.6808 42.2934 14.7291C41.7659 13.7773 41.5021 12.6972 41.5021 11.4887C41.5021 10.2952 41.7585 9.22266 42.2714 8.27094C42.7989 7.31921 43.5096 6.57143 44.4034 6.02759C45.2973 5.46864 46.3083 5.18916 47.4366 5.18916C48.4184 5.18916 49.3049 5.40821 50.0962 5.84631C50.8874 6.26929 51.5248 6.8358 52.0084 7.54581V0.883743C52.0084 0.611822 52.089 0.400328 52.2502 0.249261C52.4114 0.0830869 52.6165 0 52.8656 0C53.1147 0 53.3199 0.0830869 53.481 0.249261C53.6422 0.400328 53.7228 0.611822 53.7228 0.883743V11.5793C53.6935 12.7576 53.4078 13.8227 52.8656 14.7744C52.3381 15.711 51.6128 16.4512 50.6896 16.9951C49.7811 17.5389 48.7554 17.8108 47.6125 17.8108ZM47.6125 16.2246C48.4623 16.2246 49.217 16.0207 49.8764 15.6128C50.5504 15.1898 51.0779 14.6233 51.4589 13.9133C51.8545 13.2033 52.0524 12.3951 52.0524 11.4887C52.0524 10.5974 51.8545 9.79672 51.4589 9.0867C51.0779 8.36158 50.5504 7.79507 49.8764 7.38719C49.217 6.97931 48.4623 6.77537 47.6125 6.77537C46.7772 6.77537 46.0226 6.97931 45.3485 7.38719C44.6745 7.79507 44.1397 8.36158 43.744 9.0867C43.3484 9.79672 43.1506 10.5974 43.1506 11.4887C43.1506 12.3951 43.3484 13.2033 43.744 13.9133C44.1397 14.6233 44.6745 15.1898 45.3485 15.6128C46.0226 16.0207 46.7772 16.2246 47.6125 16.2246Z" fill="white"/>
<path d="M63.1308 17.8108C61.9439 17.8108 60.8889 17.5465 59.9657 17.0177C59.0572 16.4739 58.3392 15.7261 57.8117 14.7744C57.2989 13.8227 57.0424 12.735 57.0424 11.5113C57.0424 10.2726 57.2842 9.18489 57.7678 8.24828C58.266 7.29655 58.9473 6.54877 59.8119 6.00493C60.6764 5.46108 61.6728 5.18916 62.8011 5.18916C63.9147 5.18916 64.8819 5.45353 65.7024 5.98227C66.5377 6.4959 67.1824 7.21347 67.6366 8.13498C68.0909 9.05649 68.318 10.1064 68.318 11.2847C68.318 11.5264 68.2447 11.7228 68.0982 11.8739C67.9517 12.0099 67.7612 12.0778 67.5267 12.0778H58.1854V10.6276H67.7026L66.7574 11.33C66.7721 10.4539 66.6182 9.66831 66.2959 8.9734C65.9735 8.27849 65.5119 7.73465 64.9112 7.34187C64.325 6.9491 63.6217 6.75271 62.8011 6.75271C61.9659 6.75271 61.2332 6.95665 60.6031 7.36453C59.9731 7.77241 59.4822 8.33892 59.1305 9.06404C58.7935 9.77406 58.625 10.5898 58.625 11.5113C58.625 12.4328 58.8155 13.2486 59.1964 13.9586C59.5921 14.6686 60.1269 15.2276 60.801 15.6355C61.475 16.0434 62.2516 16.2473 63.1308 16.2473C63.6583 16.2473 64.1858 16.1567 64.7133 15.9754C65.2555 15.779 65.6878 15.5373 66.0101 15.2502C66.1713 15.1143 66.3545 15.0463 66.5596 15.0463C66.7648 15.0312 66.9406 15.0841 67.0871 15.2049C67.2776 15.3862 67.3729 15.5826 67.3729 15.7941C67.3875 16.0056 67.3069 16.1869 67.1311 16.3379C66.6476 16.7609 66.0321 17.1159 65.2848 17.403C64.5375 17.6749 63.8195 17.8108 63.1308 17.8108Z" fill="white"/>
<path d="M75.3792 17.8108C74.5146 17.8108 73.6574 17.6598 72.8075 17.3576C71.9576 17.0555 71.269 16.6023 70.7414 15.998C70.5803 15.8167 70.5143 15.6128 70.5436 15.3862C70.5729 15.1596 70.6828 14.9632 70.8733 14.797C71.0785 14.646 71.2909 14.5856 71.5107 14.6158C71.7305 14.646 71.9137 14.7442 72.0602 14.9103C72.4119 15.3333 72.8735 15.6581 73.4449 15.8847C74.0311 16.1113 74.6758 16.2246 75.3792 16.2246C76.4635 16.2246 77.2474 16.0358 77.731 15.6581C78.2145 15.2654 78.4636 14.797 78.4783 14.2532C78.4783 13.7094 78.2292 13.2637 77.731 12.9163C77.2328 12.5537 76.4122 12.2742 75.2692 12.0778C73.7893 11.8361 72.705 11.4131 72.0163 10.8089C71.3276 10.2046 70.9832 9.48703 70.9832 8.65616C70.9832 7.88571 71.181 7.24368 71.5767 6.73005C71.9723 6.21642 72.4998 5.8312 73.1592 5.57438C73.8186 5.31757 74.5439 5.18916 75.3352 5.18916C76.3169 5.18916 77.1595 5.36289 77.8629 5.71034C78.5809 6.0578 79.1597 6.52611 79.5993 7.11527C79.7458 7.31166 79.8044 7.5156 79.7751 7.72709C79.7458 7.93859 79.6286 8.11232 79.4234 8.24828C79.2476 8.35402 79.0424 8.39179 78.808 8.36158C78.5882 8.31626 78.3977 8.20296 78.2365 8.02168C77.8702 7.58358 77.4452 7.26634 76.9617 7.06995C76.4781 6.85846 75.9213 6.75271 75.2912 6.75271C74.4853 6.75271 73.8406 6.92644 73.357 7.27389C72.8735 7.60624 72.6317 8.02923 72.6317 8.54286C72.6317 8.89031 72.7196 9.19245 72.8954 9.44926C73.0859 9.70608 73.401 9.93268 73.8406 10.1291C74.2948 10.3255 74.9249 10.4916 75.7308 10.6276C76.8298 10.8089 77.6943 11.0808 78.3244 11.4433C78.9692 11.7908 79.4234 12.2062 79.6872 12.6897C79.9656 13.158 80.1048 13.6716 80.1048 14.2305C80.1048 14.9406 79.8996 15.5675 79.4894 16.1113C79.0937 16.6401 78.5369 17.0555 77.8189 17.3576C77.1155 17.6598 76.3023 17.8108 75.3792 17.8108Z" fill="white"/>
<path d="M93.3379 17.6975C93.0888 17.6975 92.8837 17.6145 92.7225 17.4483C92.5613 17.2821 92.4807 17.0782 92.4807 16.8365V10.9448C92.4807 10.0082 92.3049 9.23777 91.9532 8.6335C91.6162 8.02923 91.1473 7.57603 90.5465 7.27389C89.9604 6.97176 89.2937 6.82069 88.5464 6.82069C87.8284 6.82069 87.1763 6.9642 86.5902 7.25123C86.0187 7.53826 85.5644 7.93103 85.2274 8.42956C84.8904 8.92808 84.7219 9.49458 84.7219 10.1291H83.513C83.5423 9.17734 83.7914 8.33136 84.2603 7.59113C84.7292 6.8358 85.352 6.24663 86.1286 5.82364C86.9052 5.38555 87.7697 5.1665 88.7222 5.1665C89.7626 5.1665 90.693 5.3931 91.5136 5.84631C92.3342 6.2844 92.9789 6.93399 93.4478 7.79507C93.9314 8.65616 94.1731 9.70608 94.1731 10.9448V16.8365C94.1731 17.0782 94.0926 17.2821 93.9314 17.4483C93.7702 17.6145 93.5724 17.6975 93.3379 17.6975ZM83.8867 17.6975C83.6229 17.6975 83.4104 17.622 83.2493 17.4709C83.1027 17.3048 83.0295 17.0933 83.0295 16.8365V6.18621C83.0295 5.91429 83.1027 5.70279 83.2493 5.55172C83.4104 5.38555 83.6229 5.30246 83.8867 5.30246C84.1358 5.30246 84.3336 5.38555 84.4801 5.55172C84.6413 5.70279 84.7219 5.91429 84.7219 6.18621V16.8365C84.7219 17.0933 84.6413 17.3048 84.4801 17.4709C84.3336 17.622 84.1358 17.6975 83.8867 17.6975Z" fill="white"/>
<path d="M103.201 17.8108C102.073 17.8108 101.062 17.5389 100.168 16.9951C99.2744 16.4361 98.5638 15.6808 98.0363 14.7291C97.5234 13.7773 97.267 12.7048 97.267 11.5113C97.267 10.3028 97.5307 9.22266 98.0582 8.27094C98.6004 7.31921 99.3331 6.57143 100.256 6.02759C101.179 5.46864 102.22 5.18916 103.377 5.18916C104.535 5.18916 105.568 5.46864 106.476 6.02759C107.4 6.57143 108.125 7.31921 108.652 8.27094C109.195 9.22266 109.473 10.3028 109.488 11.5113L108.806 12.0552C108.806 13.1429 108.557 14.1248 108.059 15.001C107.575 15.8621 106.909 16.5494 106.059 17.0631C105.224 17.5616 104.271 17.8108 103.201 17.8108ZM103.377 16.2246C104.227 16.2246 104.982 16.0207 105.641 15.6128C106.315 15.2049 106.843 14.646 107.224 13.936C107.619 13.2108 107.817 12.4026 107.817 11.5113C107.817 10.6049 107.619 9.79672 107.224 9.0867C106.843 8.37668 106.315 7.81773 105.641 7.40985C104.982 6.98686 104.227 6.77537 103.377 6.77537C102.542 6.77537 101.787 6.98686 101.113 7.40985C100.439 7.81773 99.9045 8.37668 99.5089 9.0867C99.1133 9.79672 98.9154 10.6049 98.9154 11.5113C98.9154 12.4026 99.1133 13.2108 99.5089 13.936C99.9045 14.646 100.439 15.2049 101.113 15.6128C101.787 16.0207 102.542 16.2246 103.377 16.2246ZM108.63 17.6975C108.381 17.6975 108.176 17.622 108.015 17.4709C107.854 17.3048 107.773 17.0933 107.773 16.8365V12.9616L108.191 11.1714L109.488 11.5113V16.8365C109.488 17.0933 109.407 17.3048 109.246 17.4709C109.085 17.622 108.88 17.6975 108.63 17.6975Z" fill="white"/>
<path d="M113.637 23C113.373 23 113.16 22.9169 112.999 22.7507C112.853 22.5997 112.779 22.3882 112.779 22.1163V11.4207C112.794 10.2424 113.065 9.18489 113.593 8.24828C114.135 7.29655 114.86 6.54877 115.769 6.00493C116.692 5.46108 117.725 5.18916 118.868 5.18916C120.04 5.18916 121.088 5.46864 122.011 6.02759C122.934 6.57143 123.659 7.31921 124.187 8.27094C124.729 9.22266 125 10.3028 125 11.5113C125 12.7048 124.736 13.7773 124.209 14.7291C123.696 15.6808 122.993 16.4361 122.099 16.9951C121.205 17.5389 120.194 17.8108 119.065 17.8108C118.084 17.8108 117.19 17.5993 116.384 17.1764C115.593 16.7383 114.955 16.1642 114.472 15.4542V22.1163C114.472 22.3882 114.391 22.5997 114.23 22.7507C114.083 22.9169 113.886 23 113.637 23ZM118.868 16.2246C119.718 16.2246 120.48 16.0207 121.154 15.6128C121.828 15.2049 122.355 14.646 122.736 13.936C123.132 13.2108 123.33 12.4026 123.33 11.5113C123.33 10.6049 123.132 9.79672 122.736 9.0867C122.355 8.37668 121.828 7.81773 121.154 7.40985C120.48 6.98686 119.718 6.77537 118.868 6.77537C118.032 6.77537 117.278 6.98686 116.604 7.40985C115.93 7.81773 115.402 8.37668 115.021 9.0867C114.64 9.79672 114.45 10.6049 114.45 11.5113C114.45 12.4026 114.64 13.2108 115.021 13.936C115.402 14.646 115.93 15.2049 116.604 15.6128C117.278 16.0207 118.032 16.2246 118.868 16.2246Z" fill="white"/>
</svg>
